<svg xmlns="http://www.w3.org/2000/svg" width="47" height="47" viewBox="0 0 47 47"><g><g><path fill="#3984f3" d="M23.5 0C36.479 0 47 10.52 47 23.5S36.479 47 23.5 47 0 36.48 0 23.5 10.521 0 23.5 0z"/></g><g><path d="M23.604 25.644l-8.563-7.622A.088.088 0 0 1 15.1 18h17.81c.03 0 .059.018.076.043l-8.184 7.294-.343.306a1 1 0 0 0-.02.014l-.03.02a.655.655 0 0 1-.378.12h-.004a.637.637 0 0 1-.423-.152zm-2.465-1.151l-6.134 5.351V19.033zm11.866-5.424v10.778l-6.128-5.318zm-6.715 5.984l6.715 5.826v.017c0 .057-.044.104-.095.104H15.1c-.052 0-.096-.047-.096-.103v-.019l6.72-5.862 1.405 1.251c.244.216.563.334.9.334.335 0 .655-.12.9-.335z"/><path fill="#fff" d="M23.604 25.644l-8.563-7.622A.088.088 0 0 1 15.1 18h17.81c.03 0 .059.018.076.043l-8.184 7.294-.343.306a1 1 0 0 0-.02.014l-.03.02a.655.655 0 0 1-.378.12h-.004a.637.637 0 0 1-.423-.152zm-2.465-1.151l-6.134 5.351V19.033zm11.866-5.424v10.778l-6.128-5.318zm-6.715 5.984l6.715 5.826v.017c0 .057-.044.104-.095.104H15.1c-.052 0-.096-.047-.096-.103v-.019l6.72-5.862 1.405 1.251c.244.216.563.334.9.334.335 0 .655-.12.9-.335z"/></g></g></svg>