<svg xmlns="http://www.w3.org/2000/svg" width="47" height="47" viewBox="0 0 47 47"><g><g><path fill="#3984f3" d="M23.516 0C36.503 0 47.03 10.52 47.03 23.5S36.503 47 23.516 47C10.528 47 0 36.48 0 23.5S10.528 0 23.516 0z"/></g><g><path fill="#fff" d="M32.498 30.502a2.65 2.65 0 0 1-1.398.7c-5.869.433-13.684.26-15.202-.046-.541-.108-1.012-.346-1.357-.692-.267-.262-.48-.661-.644-1.216-.39-1.278-.898-9.173.722-10.646a2.692 2.692 0 0 1 1.334-.661c1.843-.344 13.337-.344 15.18 0 .627.115 1.216.461 1.561.907 1.2 1.848 1.302 10.188-.196 11.654zM26.92 24.37c-1.835-.962-3.386-1.853-5.388-2.775v5.523c2.002-1.005 3.875-1.927 5.388-2.748z"/></g></g></svg>